<svg width="169" height="151" viewBox="0 0 169 151" fill="none" xmlns="http://www.w3.org/2000/svg">
<path fill-rule="evenodd" clip-rule="evenodd" d="M104.197 24.641L104.198 24.6406L104.565 24.3594L104.68 24.2709L105.166 23.8977L105.532 23.6164L105.657 23.5208L106.15 23.1415L106.515 22.8607L106.648 22.7586L107.15 22.3727L107.513 22.0932L107.655 21.9842L108.163 21.5934L108.524 21.3157L108.675 21.1999L109.19 20.804L109.548 20.5288L109.708 20.4057L110.228 20.0056L110.583 19.7332L110.751 19.6038L111.277 19.2005L111.628 18.9312L111.806 18.7951L112.336 18.3886L112.682 18.1233L112.869 17.9805L113.403 17.5712L113.744 17.3104L113.94 17.1612L114.478 16.7499L114.814 16.4939L115.018 16.338L115.559 15.926L115.89 15.6744L116.102 15.5131L116.646 15.1L116.97 14.854L117.191 14.6868L117.737 14.2732L118.055 14.0334C118.764 13.4974 119.476 12.9622 120.188 12.4287L120.232 12.3959L120.477 12.2128L121.026 11.802L121.321 11.5812L121.574 11.3931L122.123 10.9852L122.411 10.7714L122.671 10.5785L123.219 10.1735L123.499 9.9664L123.767 9.76947L124.313 9.36753L124.585 9.16828L124.859 8.96753C125.474 8.51772 126.087 8.07172 126.697 7.63057L126.745 7.5957L127.032 7.38897C127.63 6.95806 128.225 6.5323 128.816 6.11132L128.961 6.00863L129.925 5.32626L129.963 5.29952L130.937 4.61744L131.07 4.52506L131.95 3.91469L132.128 3.79184L133.029 3.17407L133.108 3.12141L134.037 2.492L134.14 2.42328L134.898 1.91582L135.078 1.79633L135.147 1.75078C135.769 1.33905 136.381 0.939203 136.985 0.551528L137.126 0.460568L137.849 0L87.8508 23.2537C86.8035 23.2293 85.7507 23.2169 84.6936 23.2169C38.5373 23.2169 1.12048 46.4983 1.12048 75.2178C1.12048 84.2732 4.84211 92.7869 11.3835 100.201L11.3808 100.202L0.782098 130.401C0.782098 130.401 -3.44341 141.616 7.74904 150.969C5.22494 145.226 4.62644 139.03 9.82394 134.494C10.0174 134.325 10.218 134.155 10.4249 133.983L10.4626 133.951C10.6574 133.79 10.8571 133.626 11.0634 133.462L11.1263 133.412C11.3383 133.243 11.5557 133.073 11.7794 132.901L11.7879 132.894L11.7967 132.887L11.8288 132.864C12.05 132.694 12.2765 132.523 12.5086 132.351L12.5711 132.304C12.8004 132.134 13.0358 131.963 13.275 131.791L13.3312 131.75C13.5791 131.572 13.8325 131.392 14.0908 131.211L14.1112 131.197L14.1486 131.171C14.4068 130.991 14.6704 130.809 14.9385 130.626L14.9686 130.606C15.2328 130.426 15.502 130.245 15.7751 130.063L15.8532 130.011C16.129 129.828 16.4088 129.643 16.6928 129.458L16.7281 129.435L16.7718 129.406C17.0467 129.228 17.3251 129.048 17.6077 128.868L17.7234 128.794C17.9936 128.622 18.2675 128.449 18.5452 128.275L18.6204 128.227L18.7135 128.169L19.5557 127.646L19.6068 127.615L19.6393 127.595C20.2653 127.209 20.9061 126.821 21.5598 126.431L21.6519 126.375L21.7383 126.324L22.6387 125.789L22.6398 125.789L22.7076 125.749L22.8558 125.662L23.5558 125.252L23.7837 125.119L23.8649 125.072L24.7646 124.552L24.8786 124.486L24.9561 124.442L25.9049 123.899L25.9907 123.85L26.0291 123.829L27.0646 123.243L27.119 123.213L27.3503 123.083L28.1576 122.631L28.2611 122.573L28.327 122.536L28.3913 122.5L29.3131 121.989L29.4165 121.932L29.4243 121.928L30.5611 121.302L30.5829 121.29L30.8074 121.168L31.3087 120.893L31.7593 120.648L31.8121 120.619L32.3171 120.346L32.8233 120.072L32.9445 120.006L33.3311 119.797L33.8399 119.524L34.1367 119.365L34.3494 119.25L34.8607 118.977L35.3342 118.724L35.3719 118.704L35.8846 118.431L36.3979 118.159L36.5352 118.085L36.911 117.886L36.9137 117.883L36.9158 117.884C51.6341 110.094 66.8209 102.793 70.3217 99.8745C74.8653 96.0879 78.3129 88.5329 79.7824 84.9067C80.0107 84.234 80.2693 83.5582 80.5586 82.8805L80.5614 82.8728H80.5618C81.4251 80.8524 82.5534 78.8219 83.9294 76.8312C86.8174 72.653 90.7903 68.6477 95.6568 65.2701C103.744 59.6562 110.28 54.1422 116.877 53.5418C118.244 53.4176 119.48 54.2022 119.949 55.4925C120.419 56.7835 119.976 58.1793 118.848 58.9622L102.305 70.4446C100.491 71.7047 100.038 74.2178 101.297 76.0321C102.556 77.8453 105.07 78.2997 106.884 77.0405L128.54 62.0086C129.831 61.1124 131.589 61.3688 132.57 62.5975C132.833 62.9266 133.098 63.2675 133.365 63.6178C133.419 63.6895 133.463 63.7526 133.511 63.8289C133.746 64.2011 133.972 64.5681 134.189 64.9294C134.996 66.2783 134.622 68.0152 133.33 68.9118L111.675 83.9433C109.861 85.2025 109.408 87.7161 110.667 89.5304C111.926 91.3446 114.439 91.7983 116.253 90.5391L132.796 79.0566C133.924 78.2737 135.387 78.3456 136.432 79.2376C137.477 80.1278 137.779 81.5609 137.185 82.7984C134.316 88.7682 126.865 92.964 118.776 98.5776C113.91 101.955 108.769 104.277 103.845 105.522C101.498 106.114 99.2021 106.463 97.007 106.564L97.0063 106.565H96.9979C96.2623 106.598 95.5386 106.605 94.8286 106.584C90.9175 106.692 82.6338 107.28 77.4978 110.213C74.7764 111.766 68.1841 117.77 60.286 124.964H60.2868L60.2847 124.965L60.2839 124.965L59.9353 125.283L59.5849 125.602L59.5476 125.636L59.2332 125.922L58.8797 126.244L58.5928 126.506L58.525 126.567L58.1683 126.892L57.8109 127.217L57.6274 127.384L57.4517 127.544L57.0911 127.871L56.7295 128.201L56.653 128.27L56.3668 128.53L56.0026 128.861L55.6693 129.163L55.6374 129.192L55.2712 129.524L54.9039 129.856L54.6782 130.061L54.5363 130.19L54.167 130.524L53.7968 130.858L53.68 130.964L53.4263 131.193L53.0548 131.528L52.6825 131.864L52.6762 131.87L52.3096 132.199L51.9364 132.535L51.6679 132.777L51.5623 132.872L51.1877 133.208L50.8129 133.544L50.6552 133.685L50.4375 133.879L50.0615 134.216L49.6857 134.551L49.6397 134.592L49.3087 134.887L48.932 135.222L48.6218 135.498L48.5555 135.557L48.1784 135.891L47.8016 136.225L47.6037 136.4L47.4244 136.558L47.0471 136.891L46.67 137.223L46.585 137.298L46.2932 137.554L45.9167 137.885L45.567 138.191L45.5399 138.214L45.1637 138.543L44.7879 138.87L44.5512 139.076L44.4121 139.197L44.0367 139.523L43.662 139.847L43.5386 139.954L43.288 140.17L42.914 140.492L42.5411 140.812L42.5292 140.822L42.1688 141.131L41.7967 141.449L41.5243 141.681L41.4263 141.764L40.6863 142.392L40.5259 142.527L40.5075 142.543L39.9503 143.011L39.5838 143.319L39.5338 143.361L39.4603 143.422L38.8538 143.928L38.5493 144.181L38.4907 144.229L38.1283 144.528L37.7677 144.825L37.7494 144.84L37.4491 145.087L36.6927 145.703C49.8634 139.968 63.8859 131.275 71.1645 126.54V126.539C75.5677 126.986 80.0867 127.218 84.6933 127.218C130.849 127.218 168.266 103.937 168.266 75.2171C168.266 59.6069 157.209 45.6042 139.705 36.0732L139.708 36.0715C147.677 28.218 156.881 17.9482 156.881 17.9482L156.758 18.0272L156.662 18.089C156.182 18.3965 155.68 18.7078 155.157 19.0221L155.084 19.0656C154.834 19.2156 154.58 19.3662 154.321 19.5172L154.188 19.5941C153.938 19.7385 153.685 19.8841 153.427 20.0303L153.338 20.081L152.543 20.5253L152.461 20.5708L152.387 20.611L151.552 21.0658L151.511 21.0876L151.417 21.1381C151.134 21.2901 150.848 21.4418 150.559 21.5951L150.489 21.632C149.885 21.9493 149.268 22.2682 148.635 22.5893L148.492 22.6623L148.451 22.6828C147.77 23.0271 147.074 23.3736 146.363 23.722L146.336 23.735L145.247 24.2643L145.222 24.2762L144.173 24.778L144.059 24.8323L142.982 25.3411L142.978 25.3425L142.066 25.768L141.816 25.8838L141.604 25.9822L140.673 26.4101L140.64 26.4257L140.617 26.4359C139.856 26.7844 139.085 27.1331 138.308 27.4817L138.244 27.511L137.829 27.6962L137.027 28.0537L136.867 28.1248C136.106 28.4625 135.338 28.8006 134.567 29.1368L134.436 29.1947C132.828 29.8961 131.203 30.5947 129.577 31.2866L129.506 31.3167V31.3191L129.503 31.3177C114.485 37.7039 99.3032 43.5288 95.6465 46.093C82.2757 55.4699 88.2989 66.4785 67.5244 78.4726C52.2547 87.2879 35.3393 86.5743 29.741 76.8781C24.1427 67.1816 31.9824 52.1752 47.2518 43.3597C68.0258 31.3657 74.5485 42.0858 89.3546 35.1945C91.7899 34.0612 97.3313 29.9063 104.197 24.6407H104.197V24.641Z" fill="#0B7D3B"/>
</svg>
